Coordinates
version=1
nRows=14
nColumns=63
inDegrees=yes

Units are S.I. units (second, meters, Newtons, ...)
If the header above contains a line with 'inDegrees', this indicates whether rotational values are in degrees (yes) or radians (no).

endheader
time	pelvis_tilt	pelvis_list	pelvis_rotation	pelvis_tx	pelvis_ty	pelvis_tz	hip_flexion_r	hip_adduction_r	hip_rotation_r	knee_angle_r	knee_angle_r_beta	ankle_angle_r	subtalar_angle_r	mtp_angle_r	hip_flexion_l	hip_adduction_l	hip_rotation_l	knee_angle_l	knee_angle_l_beta	ankle_angle_l	subtalar_angle_l	mtp_angle_l	L5_S1_Flex_Ext	L5_S1_Lat_Bending	L5_S1_axial_rotation	L4_L5_Flex_Ext	L4_L5_Lat_Bending	L4_L5_axial_rotation	L3_L4_Flex_Ext	L3_L4_Lat_Bending	L3_L4_axial_rotation	L2_L3_Flex_Ext	L2_L3_Lat_Bending	L2_L3_axial_rotation	L1_L2_Flex_Ext	L1_L2_Lat_Bending	L1_L2_axial_rotation	L1_T12_Flex_Ext	L1_T12_Lat_Bending	L1_T12_axial_rotation	Abs_r3	Abs_r2	Abs_r1	Abs_t1	Abs_t2	neck_flexion	neck_bending	neck_rotation	arm_flex_r	arm_add_r	arm_rot_r	elbow_flex_r	pro_sup_r	wrist_flex_r	wrist_dev_r	arm_flex_l	arm_add_l	arm_rot_l	elbow_flex_l	pro_sup_l	wrist_flex_l	wrist_dev_l
4.933333	3.910442	-3.542649	94.746722	0.179967	0.701902	0.585207	4.871375	5.808392	-8.369950	14.083337	0.245801	29.258692	-8.410876	0.000000	1.972261	-5.241234	-7.958739	9.671853	0.168806	33.166222	13.595164	0.000000	-0.051151	0.599838	-0.867927	-0.094993	0.797785	-0.922172	-0.084037	1.458447	-0.922172	-0.058461	1.458447	-0.759436	-0.047499	1.223190	-0.705190	-0.029228	0.929150	-0.650945	-0.365369	6.785491	-4.827148	0.000000	0.000000	7.294359	0.340350	4.384881	51.732706	-17.820424	18.403254	126.726103	88.829757	-7.358284	5.942585	45.636172	-18.390206	20.269044	132.050929	88.697747	-7.614996	2.416782
4.950000	3.914989	-3.166010	94.600676	0.179844	0.702160	0.581489	4.032140	5.922942	-7.406574	13.539148	0.236303	29.606706	-8.460715	0.000000	1.424254	-5.281468	-8.310429	9.802445	0.171085	33.572543	13.678389	0.000000	-0.051941	0.600460	-0.846405	-0.096460	0.798612	-0.899305	-0.085335	1.459959	-0.899305	-0.059364	1.459959	-0.740604	-0.048233	1.224459	-0.687704	-0.029679	0.930113	-0.634804	-0.371012	6.792528	-4.707451	0.000000	0.000000	6.935553	0.866204	4.042177	48.975321	-15.887894	17.867465	126.862602	88.991925	-10.703411	3.719946	43.389567	-16.272038	20.587538	131.937532	88.709316	-9.101867	0.678142
4.966667	3.898443	-2.829670	94.439597	0.179892	0.702276	0.577806	3.244851	6.025815	-6.286379	12.992143	0.226756	30.030646	-8.493510	0.000000	0.936515	-5.301186	-8.644971	9.959184	0.173821	34.010311	13.728349	0.000000	-0.052517	0.598611	-0.831215	-0.097529	0.796152	-0.883165	-0.086280	1.455462	-0.883165	-0.060022	1.455462	-0.727313	-0.048767	1.220687	-0.675362	-0.030008	0.927248	-0.623411	-0.375124	6.771604	-4.622966	0.000000	0.000000	6.621063	1.339388	3.688579	45.934264	-13.730020	16.858944	127.165101	89.139707	-13.627978	2.108543	40.782463	-14.229959	20.554400	132.023144	88.720501	-10.629154	-0.461962
4.983333	3.835883	-2.543678	94.258133	0.180167	0.702227	0.574279	2.530258	6.091023	-5.034959	12.450228	0.217297	30.536450	-8.501992	0.000000	0.520177	-5.275109	-8.936864	10.133562	0.176864	34.456154	13.728421	0.000000	-0.052959	0.590588	-0.816050	-0.098350	0.785482	-0.867053	-0.087006	1.435955	-0.867053	-0.060527	1.435955	-0.714044	-0.049178	1.204327	-0.663041	-0.030261	0.914820	-0.612038	-0.378280	6.680847	-4.538627	0.000000	0.000000	6.380986	1.772311	3.269247	42.672847	-11.379339	15.347051	127.600241	89.289615	-16.076506	0.983630	37.895493	-12.307030	20.224201	132.311204	88.749101	-12.286513	-0.872388
5.000000	3.736795	-2.331596	94.046607	0.180648	0.701999	0.571014	1.932367	6.122204	-3.678856	11.940125	0.208394	31.105009	-8.508354	0.000000	0.207364	-5.209542	-9.186338	10.329547	0.180285	34.899883	13.660535	0.000000	-0.050549	0.580031	-0.804580	-0.093874	0.771441	-0.854866	-0.083047	1.410287	-0.854866	-0.057772	1.410287	-0.704008	-0.046940	1.182799	-0.653721	-0.028884	0.898468	-0.603435	-0.361065	6.561424	-4.474833	0.000000	0.000000	6.215685	2.068784	2.870441	39.289877	-8.890992	13.365677	128.141593	89.451604	-17.877360	0.435294	34.744656	-10.524155	19.522553	132.733152	88.778486	-13.980159	-0.902806
5.016667	3.624260	-2.167953	93.848808	0.181231	0.701626	0.568122	1.431336	6.135970	-2.320892	11.464209	0.200088	31.706121	-8.507678	0.000000	-0.012035	-5.130937	-9.389071	10.552926	0.184183	35.359850	13.597132	0.000000	-0.050345	0.570174	-0.799762	-0.093497	0.758332	-0.849747	-0.082713	1.386322	-0.849747	-0.057540	1.386322	-0.699792	-0.046751	1.162700	-0.649807	-0.028767	0.883200	-0.599822	-0.359612	6.449928	-4.448038	0.000000	0.000000	6.151699	2.219575	2.463545	35.868994	-6.463151	11.019872	128.691644	89.601909	-19.073834	0.023709	31.398267	-8.864036	18.434710	133.194947	88.782741	-15.620897	-0.970022
5.033333	3.487302	-2.073063	93.658779	0.181886	0.701104	0.565689	1.063619	6.111026	-1.036966	11.053115	0.192913	32.330542	-8.455376	0.000000	-0.115487	-5.030549	-9.601875	10.803218	0.188552	35.823765	13.597879	0.000000	-0.050046	0.560401	-0.802738	-0.092940	0.745333	-0.852909	-0.082220	1.362558	-0.852909	-0.057197	1.362558	-0.702396	-0.046472	1.142769	-0.652225	-0.028596	0.868061	-0.602054	-0.357471	6.339365	-4.464590	0.000000	0.000000	6.182872	2.203716	2.070002	32.467705	-4.221233	8.445643	129.185658	89.630152	-19.833629	-0.314390	27.900675	-7.348711	16.894416	133.697174	88.746278	-17.106029	-1.196335
5.050000	3.328053	-2.053344	93.472675	0.182561	0.700452	0.563747	0.837790	6.048087	0.149702	10.713753	0.186990	32.945232	-8.372320	0.000000	-0.099767	-4.904080	-9.787349	11.069871	0.193206	36.271261	13.600216	0.000000	-0.048413	0.551576	-0.811406	-0.089907	0.733596	-0.862119	-0.079537	1.341101	-0.862119	-0.055331	1.341101	-0.709980	-0.044956	1.124773	-0.659267	-0.027663	0.854391	-0.608554	-0.345807	6.239535	-4.512797	0.000000	0.000000	6.295586	2.014529	1.681929	29.131848	-2.283894	5.689661	129.538381	89.445640	-20.064941	-0.608336	24.289259	-5.980966	14.865387	134.220210	88.667869	-18.307773	-1.632480
5.066667	3.137297	-2.107531	93.271781	0.183258	0.699691	0.562321	0.761285	5.933031	1.194772	10.473843	0.182803	33.536176	-8.236514	0.000000	0.032246	-4.742571	-9.970041	11.353814	0.198161	36.700255	13.613471	0.000000	-0.046660	0.542560	-0.823020	-0.086653	0.721604	-0.874459	-0.076658	1.319180	-0.874459	-0.053328	1.319180	-0.720142	-0.043329	1.106388	-0.668704	-0.026662	0.840425	-0.617265	-0.333291	6.137544	-4.577389	0.000000	0.000000	6.505531	1.674154	1.302950	25.913068	-0.758254	2.847671	129.688090	88.998777	-19.928769	-0.862672	20.606459	-4.776603	12.331745	134.753155	88.562918	-19.130515	-2.254880
5.083333	2.908493	-2.236848	93.036224	0.183985	0.698833	0.561369	0.829430	5.760889	2.089407	10.334196	0.180366	34.076844	-8.050556	0.000000	0.272362	-4.538887	-10.159062	11.646172	0.203264	37.108041	13.635529	0.000000	-0.043814	0.532059	-0.835443	-0.081367	0.707639	-0.887658	-0.071982	1.293649	-0.887658	-0.050075	1.293649	-0.731013	-0.040686	1.084975	-0.678798	-0.025035	0.824160	-0.626582	-0.312960	6.018759	-4.646484	0.000000	0.000000	6.805361	1.209299	0.929287	22.847356	0.299374	-0.023391	129.600006	88.406137	-19.507859	-1.014505	16.866260	-3.761501	9.334006	135.274912	88.445118	-19.590864	-2.987153
5.100000	2.640752	-2.431051	92.773118	0.184723	0.697891	0.560841	1.033053	5.525932	2.776370	10.312477	0.179987	34.571814	-7.788723	0.000000	0.612593	-4.292594	-10.323954	11.956212	0.208675	37.505481	13.650410	0.000000	-0.040968	0.519731	-0.855550	-0.076082	0.691242	-0.909022	-0.067307	1.263674	-0.909022	-0.046823	1.263674	-0.748607	-0.038043	1.059835	-0.695135	-0.023409	0.805063	-0.641663	-0.292633	5.879300	-4.758314	0.000000	0.000000	7.216063	0.660658	0.620719	19.966992	0.897981	-2.895809	129.265991	87.801587	-18.696579	-0.991531	13.060819	-2.965738	5.888218	135.772550	88.326000	-19.660947	-3.682690
5.116667	2.340377	-2.682676	92.453064	0.185525	0.696887	0.560595	1.333857	5.244168	3.282242	10.365614	0.180914	35.005455	-7.448746	0.000000	1.020182	-4.009531	-10.469985	12.259822	0.213974	37.881873	13.632611	0.000000	-0.036548	0.504173	-0.873008	-0.067873	0.670550	-0.927571	-0.060044	1.225845	-0.927571	-0.041770	1.225845	-0.763882	-0.033938	1.028109	-0.709319	-0.020883	0.780963	-0.654756	-0.261056	5.703301	-4.855407	0.000000	0.000000	7.701719	0.093782	0.303577	17.222918	1.015157	-5.764943	128.784610	87.256105	-17.627916	-0.657384	9.226135	-2.390221	2.131556	136.169419	88.221509	-19.378267	-4.362412
5.133333	2.010997	-2.985383	92.094483	0.186339	0.695834	0.560560	1.726695	4.918752	3.616152	10.504116	0.183331	35.363055	-7.105136	0.000000	1.486721	-3.695235	-10.602285	12.562145	0.219251	38.237948	13.596941	0.000000	-0.030154	0.486277	-0.892818	-0.056000	0.646748	-0.948620	-0.049541	1.182333	-0.948620	-0.034464	1.182333	-0.781216	-0.028001	0.991615	-0.725415	-0.017230	0.753243	-0.669614	-0.215391	5.500859	-4.965588	0.000000	0.000000	8.293125	-0.488504	0.066411	14.614609	0.649026	-8.518413	128.219723	86.790738	-16.590117	-0.086367	5.390071	-2.029830	-1.810251	136.380791	88.137447	-18.841332	-5.184678
5.150000	1.685900	-3.313372	91.695505	0.187153	0.694772	0.560659	2.172622	4.588571	3.801329	10.706236	0.186859	35.635889	-6.794029	0.000000	1.983376	-3.382889	-10.694211	12.871207	0.224645	38.561951	13.480393	0.000000	-0.024772	0.469341	-0.906449	-0.046005	0.624224	-0.963102	-0.040699	1.141156	-0.963102	-0.028312	1.141156	-0.793143	-0.023004	0.957081	-0.736490	-0.014155	0.727010	-0.679837	-0.176947	5.309283	-5.041396	0.000000	0.000000	8.972634	-1.082223	-0.159075	12.076996	-0.125959	-11.208884	127.708813	86.422125	-15.578288	0.845614	1.660997	-1.903858	-5.803355	136.449667	88.092781	-18.048273	-5.759281
